<?xml version="1.0" encoding="utf-8"?>
<!-- Generator: Adobe Illustrator 27.5.0, SVG Export Plug-In . SVG Version: 6.00 Build 0)  -->
<svg version="1.1" xmlns="http://www.w3.org/2000/svg" xmlns:xlink="http://www.w3.org/1999/xlink" x="0px" y="0px"
	 viewBox="0 0 450 450" style="enable-background:new 0 0 450 450;" xml:space="preserve">
<g id="Layer_1">
</g>
<g id="Layer_2">
	<g>
		<linearGradient id="SVGID_1_" gradientUnits="userSpaceOnUse" x1="225" y1="397" x2="225" y2="53">
			<stop  offset="0" style="stop-color:#C70606"/>
			<stop  offset="0.3003" style="stop-color:#D90606"/>
			<stop  offset="0.7031" style="stop-color:#EA0707"/>
			<stop  offset="1" style="stop-color:#F00707"/>
		</linearGradient>
		<path style="fill:url(#SVGID_1_);" d="M225,53c-94.841,0-172,77.159-172,172s77.159,172,172,172s172-77.159,172-172
			S319.841,53,225,53z M336.391,310.536c-0.86,1.117-2.386,1.2-3.383,0.204L139.26,116.991c-0.998-0.998-0.914-2.522,0.204-3.382
			C163.172,95.361,192.839,84.493,225,84.493c77.476,0,140.507,63.031,140.507,140.507
			C365.507,257.162,354.639,286.828,336.391,310.536z M113.609,139.464c0.86-1.118,2.385-1.202,3.382-0.204L310.74,333.008
			c0.996,0.997,0.913,2.522-0.204,3.383c-23.708,18.248-53.375,29.116-85.536,29.116c-77.475,0-140.507-63.031-140.507-140.507
			C84.493,192.838,95.361,163.172,113.609,139.464z"/>
		
			<linearGradient id="SVGID_00000138540366870301840490000009041639955988521362_" gradientUnits="userSpaceOnUse" x1="224.7231" y1="264.4427" x2="224.7231" y2="56.4058">
			<stop  offset="0" style="stop-color:#9E9E9E"/>
			<stop  offset="1" style="stop-color:#D9D9D9"/>
		</linearGradient>
		<path style="fill:url(#SVGID_00000138540366870301840490000009041639955988521362_);" d="M56.406,225
			c0,12.564,1.392,24.808,4.013,36.595c0.408,1.837,2.28,3.09,4.141,2.809l17.775-2.688c1.86-0.28,2.98-1.982,2.55-3.813
			c-2.483-10.57-3.798-21.585-3.798-32.901c0-31.969,10.313-62.266,29.822-87.613c1.09-1.416,2.717-2.228,4.465-2.228
			c1.504,0,2.934,0.601,4.025,1.692l101.185,101.186c1.331,1.329,3.916,2.18,5.776,1.898l23.585-3.566
			c1.859-0.28,2.289-1.587,0.959-2.917L136.852,119.399c-1.173-1.173-1.785-2.771-1.68-4.385c0.104-1.605,0.912-3.102,2.215-4.105
			c25.348-19.51,55.645-29.823,87.613-29.823c75.993,0,138.41,59.208,143.56,133.916c0.13,1.877,1.702,3.173,3.563,2.891
			l17.779-2.688c1.859-0.282,3.278-2.032,3.127-3.908C386.032,124.72,313.35,56.406,225,56.406
			C132.037,56.406,56.406,132.037,56.406,225z"/>
		<g>
			<path style="fill:#BFBFBF;" d="M136.852,121.103L330.6,314.851c1.092,1.092,2.522,1.693,4.025,1.693
				c1.747,0,3.375-0.812,4.464-2.227c19.511-25.349,29.824-55.645,29.824-87.614c0-0.252-0.009-0.502-0.011-0.754
				c-0.202,31.62-10.495,61.568-29.813,86.666c-1.089,1.415-2.717,2.227-4.464,2.227c-1.504,0-2.934-0.602-4.025-1.693
				L136.852,119.399c-0.874-0.874-1.437-1.985-1.623-3.163c-0.024,0.159-0.047,0.319-0.058,0.481
				C135.066,118.331,135.679,119.93,136.852,121.103z"/>
			<path style="fill:#BFBFBF;" d="M225,58.109c92.679,0,168.122,75.17,168.583,167.743c0.002-0.285,0.011-0.567,0.011-0.852
				c0-92.963-75.631-168.594-168.594-168.594c-92.963,0-168.594,75.631-168.594,168.594c0,0.285,0.01,0.567,0.011,0.852
				C56.878,133.279,132.322,58.109,225,58.109z"/>
			<path style="fill:#BFBFBF;" d="M225,370.615c31.97,0,62.266-10.313,87.613-29.822c1.305-1.005,2.112-2.501,2.216-4.107
				c0.026-0.41,0.006-0.819-0.058-1.22c-0.22,1.419-0.986,2.72-2.158,3.623C287.266,358.6,256.97,368.913,225,368.913
				c-79.102,0-143.495-64.152-143.903-143.159c-0.003,0.317-0.01,0.631-0.01,0.949C81.087,306.057,145.646,370.615,225,370.615z"/>
		</g>
		<path style="fill:#B8B8B8;" d="M225,56.406c92.963,0,168.594,75.631,168.594,168.594c0,92.963-75.631,168.594-168.594,168.594
			c-92.963,0-168.594-75.631-168.594-168.594C56.406,132.037,132.037,56.406,225,56.406L225,56.406z M334.625,314.84
			c1.747,0,3.375-0.811,4.465-2.227c19.51-25.348,29.823-55.645,29.823-87.613c0-79.354-64.56-143.913-143.913-143.913
			c-31.969,0-62.265,10.313-87.613,29.822c-1.304,1.004-2.112,2.5-2.216,4.105c-0.105,1.614,0.507,3.212,1.68,4.385L330.6,313.147
			C331.691,314.239,333.121,314.84,334.625,314.84L334.625,314.84z M225,368.913c31.969,0,62.266-10.313,87.614-29.824
			c1.304-1.004,2.111-2.5,2.215-4.105c0.104-1.613-0.509-3.211-1.682-4.384L119.399,136.852c-1.091-1.091-2.521-1.692-4.026-1.692
			c-1.747,0-3.374,0.812-4.464,2.227C91.399,162.734,81.087,193.031,81.087,225C81.087,304.353,145.646,368.913,225,368.913
			L225,368.913z M225,53c-94.841,0-172,77.159-172,172s77.159,172,172,172s172-77.159,172-172S319.841,53,225,53L225,53z
			 M334.625,311.434c-0.572,0-1.152-0.229-1.617-0.693L139.26,116.991c-0.998-0.998-0.914-2.522,0.204-3.382
			C163.172,95.361,192.839,84.493,225,84.493c77.476,0,140.507,63.031,140.507,140.507c0,32.162-10.868,61.828-29.116,85.536
			C335.931,311.133,335.282,311.434,334.625,311.434L334.625,311.434z M225,365.507c-77.475,0-140.507-63.031-140.507-140.507
			c0-32.162,10.868-61.828,29.116-85.536c0.46-0.597,1.108-0.899,1.765-0.899c0.573,0,1.152,0.23,1.617,0.695L310.74,333.008
			c0.996,0.997,0.913,2.522-0.204,3.383C286.828,354.639,257.161,365.507,225,365.507L225,365.507z"/>
	</g>
</g>
</svg>
